<?xml version="1.0" encoding="utf-8"?>
<!-- Generator: Adobe Illustrator 25.2.1, SVG Export Plug-In . SVG Version: 6.00 Build 0)  -->
<svg version="1.1" id="Layer_1" xmlns="http://www.w3.org/2000/svg" xmlns:xlink="http://www.w3.org/1999/xlink" x="0px" y="0px"
	 viewBox="0 0 44.8 43" style="enable-background:new 0 0 44.8 43;" xml:space="preserve">
<style type="text/css">
	.st0{fill:#C1C1C1;}
	.st1{fill:none;stroke:#FFFFFF;stroke-width:3;stroke-linecap:round;stroke-linejoin:round;stroke-miterlimit:10;}
	.st2{fill:none;stroke:#FFFFFF;stroke-width:2;stroke-linecap:round;stroke-linejoin:round;stroke-miterlimit:10;}
	.st3{fill:#FFFFFF;}
	.st4{fill:#EBBC48;}
	.st5{fill:#495057;}
	.st6{fill:#343B43;}
	.st7{fill:#58B4D9;}
	.st8{fill:#8FDEF6;}
	.st9{fill:#E6E5E5;}
</style>
<g>
	<path class="st0" d="M37.6,34.6H5.9c-2,0-3.6-1.6-3.6-3.6V8.2c0-2,1.6-3.6,3.6-3.6h31.7c2,0,3.6,1.6,3.6,3.6V31
		C41.2,33,39.5,34.6,37.6,34.6z"/>
	<line class="st1" x1="10.9" y1="9.4" x2="36.2" y2="9.4"/>
	<line class="st2" x1="5.9" y1="15.1" x2="25.4" y2="15.1"/>
	<line class="st2" x1="5.9" y1="20.1" x2="29.4" y2="20.1"/>
	<line class="st2" x1="5.9" y1="25.1" x2="22.1" y2="25.1"/>
	<line class="st2" x1="5.9" y1="30.4" x2="27.9" y2="30.4"/>
	<circle class="st3" cx="6.5" cy="9.4" r="1.6"/>
</g>
<path class="st4" d="M39.6,39.3c0.9-0.3,1.8,0.2,2.1,1.1l0,0c0,0.1,0.1,0.1,0.2,0c0.1,0,0.1-0.1,0.1-0.2l0,0
	c-0.3-0.9,0.2-1.8,1.1-2.1l0,0c0.1-0.1,0.1-0.2,0-0.2c-0.1-0.1-0.2-0.1-0.2,0c-0.9,0.3-1.8-0.2-2.1-1.1l0,0c0-0.1-0.2-0.1-0.2-0.1
	l0,0c-0.1,0.1-0.1,0.2-0.1,0.2c0.3,0.9-0.2,1.8-1.1,2.1l0,0c-0.1,0.1-0.1,0.2,0,0.2C39.5,39.2,39.6,39.3,39.6,39.3z M41.8,34.7
	c0.3-0.1,0.6,0.1,0.7,0.4l0,0l0.1,0l0-0.1c-0.1-0.3,0.1-0.6,0.4-0.7l0-0.1l-0.1,0c-0.3,0.1-0.6-0.1-0.7-0.4l0,0l-0.1,0l0,0.1
	C42.3,34.1,42.1,34.5,41.8,34.7C41.7,34.6,41.7,34.6,41.8,34.7C41.7,34.6,41.7,34.6,41.8,34.7C41.7,34.7,41.8,34.7,41.8,34.7z
	 M36.8,37.9c0.3-0.1,0.6,0.1,0.7,0.4l0.1,0l0-0.1c-0.1-0.3,0.1-0.6,0.4-0.7l0,0l0-0.1c0,0,0,0-0.1,0c-0.3,0.1-0.6-0.1-0.7-0.4
	l-0.1,0l0,0.1C37.2,37.4,37,37.6,36.8,37.9C36.7,37.8,36.7,37.8,36.8,37.9C36.7,37.8,36.7,37.8,36.8,37.9
	C36.7,37.9,36.7,37.9,36.8,37.9C36.7,37.9,36.8,37.9,36.8,37.9z"/>
<g>
	<g>
		<rect x="32.7" y="27.7" class="st5" width="1.7" height="1.9"/>
		<g>
			<path class="st6" d="M33.6,10.4c-4.9,0-8.9,4-8.9,8.9c0,4.9,4,8.9,8.9,8.9c4.9,0,8.9-4,8.9-8.9C42.5,14.3,38.5,10.4,33.6,10.4z"
				/>
			<path class="st7" d="M33.6,26.4c-3.9,0-7.1-3.2-7.1-7.1c0-3.9,3.2-7.1,7.1-7.1c3.9,0,7.1,3.2,7.1,7.1
				C40.7,23.2,37.5,26.4,33.6,26.4z"/>
			<path class="st8" d="M33.6,24.9c-3.1,0-5.7-2.5-5.7-5.7c0-3.1,2.6-5.7,5.7-5.7s5.7,2.5,5.7,5.7C39.3,22.4,36.7,24.9,33.6,24.9z"
				/>
			<path class="st3" d="M30.5,13.3c0,0.5-0.4,0.9-0.9,0.9c-0.5,0-0.9-0.4-0.9-0.9s0.4-0.9,0.9-0.9C30.1,12.4,30.5,12.8,30.5,13.3z"
				/>
		</g>
		<path class="st6" d="M35.2,30.4v7.9c0,0.9-0.7,1.7-1.7,1.7c-0.9,0-1.7-0.7-1.7-1.7v-7.9H35.2z"/>
		<path class="st9" d="M35.2,30.4h-3.3v-0.2c0-0.2,0.1-0.3,0.2-0.4c0.1-0.1,0.3-0.2,0.4-0.2h2.1c0.2,0,0.3,0.1,0.4,0.2
			c0.1,0.1,0.2,0.3,0.2,0.4V30.4z"/>
	</g>
</g>
<g>
	<path class="st3" d="M35.2,19.5c-0.3,0.2-0.6,0.4-0.7,0.6c-0.2,0.2-0.2,0.3-0.2,0.6v0.1h-1.4v-0.4c0-0.4,0.1-0.7,0.3-0.9
		c0.2-0.2,0.5-0.5,0.9-0.8c0.4-0.3,0.6-0.5,0.8-0.7c0.2-0.2,0.3-0.5,0.3-0.8c0-0.4-0.1-0.6-0.4-0.9c-0.2-0.2-0.6-0.3-1-0.3
		c-0.4,0-0.8,0.1-1.1,0.2s-0.6,0.4-0.9,0.7L31,16.3c0.4-0.5,0.8-0.8,1.3-1.1c0.5-0.2,1-0.4,1.7-0.4c0.6,0,1,0.1,1.5,0.3
		c0.4,0.2,0.8,0.5,1,0.9c0.2,0.4,0.3,0.8,0.3,1.2c0,0.4-0.1,0.7-0.2,0.9s-0.3,0.5-0.5,0.7C35.8,19.1,35.6,19.3,35.2,19.5z
		 M32.6,22.8c0-0.6,0.3-0.9,0.9-0.9c0.3,0,0.6,0.1,0.7,0.2c0.1,0.2,0.2,0.4,0.2,0.7s-0.1,0.5-0.2,0.7c-0.1,0.2-0.4,0.2-0.7,0.2
		C33,23.7,32.6,23.4,32.6,22.8z"/>
</g>
</svg>
