<?xml version="1.0" encoding="utf-8"?>
<!-- Generator: Adobe Illustrator 25.2.1, SVG Export Plug-In . SVG Version: 6.00 Build 0)  -->
<svg version="1.1" id="Layer_1" xmlns="http://www.w3.org/2000/svg" xmlns:xlink="http://www.w3.org/1999/xlink" x="0px" y="0px"
	 viewBox="0 0 44.8 43" style="enable-background:new 0 0 44.8 43;" xml:space="preserve">
<style type="text/css">
	.st0{fill:#80C5E0;}
	.st1{fill:#00A1E0;}
	.st2{fill:#EBBC48;}
</style>
<g>
	<path class="st0" d="M18.8,28H29c3.6,0,6.5-2.9,6.5-6.5v-6.4v-2.1V6.6c0-3.6-2.9-6.5-6.5-6.5H12.1c-3.6,0-6.5,2.9-6.5,6.5v2.8
		l-5.1,3.2c-0.3,0.2-0.5,0.5-0.5,0.9c0,0.4,0.2,0.7,0.5,0.9l5.1,3.2v4c0,3.6,2.9,6.5,6.5,6.5h4.7H18.8z M12.9,7.6h15.4
		c0.6,0,1,0.5,1,1c0,0.6-0.5,1-1,1H12.9c-0.6,0-1-0.5-1-1C11.9,8,12.3,7.6,12.9,7.6z M12.9,13.1h15.4c0.6,0,1,0.5,1,1s-0.5,1-1,1
		H12.9c-0.6,0-1-0.5-1-1S12.3,13.1,12.9,13.1z M11.9,19.6c0-0.6,0.5-1,1-1h9.4c0.6,0,1,0.5,1,1s-0.5,1-1,1h-9.4
		C12.3,20.6,11.9,20.1,11.9,19.6z"/>
	<path class="st1" d="M38.2,13.1h-0.6v8.5c0,4.7-3.8,8.5-8.5,8.5H16.8V31c0,3.6,2.9,6.5,6.5,6.5h2.8l3.2,5.1
		c0.2,0.3,0.5,0.5,0.9,0.5c0.4,0,0.7-0.2,0.9-0.5l3.2-5.1h4c3.6,0,6.5-2.9,6.5-6.5V19.5C44.6,16,41.7,13.1,38.2,13.1z"/>
	<path class="st2" d="M44.7,7.3c-0.7-0.7-0.7-1.7,0-2.4c0,0,0,0,0,0c0.1-0.1,0.1-0.2,0-0.2c-0.1-0.1-0.2-0.1-0.2,0c0,0,0,0,0,0
		c-0.7,0.7-1.7,0.7-2.4,0c0,0,0,0,0,0c-0.1-0.1-0.2-0.1-0.2,0c-0.1,0.1-0.1,0.2,0,0.2c0.7,0.7,0.7,1.7,0,2.4c0,0,0,0,0,0
		c-0.1,0.1-0.1,0.2,0,0.2c0,0,0,0,0,0c0.1,0.1,0.2,0.1,0.2,0c0.7-0.7,1.7-0.7,2.4,0c0,0,0,0,0,0c0.1,0.1,0.2,0.1,0.2,0
		C44.7,7.4,44.7,7.3,44.7,7.3z M39.6,7.4c-0.2-0.2-0.2-0.6,0-0.8c0,0,0,0,0,0c0,0,0-0.1,0-0.1c0,0-0.1,0-0.1,0
		c-0.2,0.2-0.6,0.2-0.8,0c0,0-0.1,0-0.1,0c0,0,0,0.1,0,0.1c0.2,0.2,0.2,0.6,0,0.8c0,0,0,0,0,0c0,0,0,0.1,0,0.1c0,0,0.1,0,0.1,0
		C38.9,7.3,39.3,7.3,39.6,7.4C39.5,7.5,39.5,7.5,39.6,7.4C39.5,7.5,39.5,7.5,39.6,7.4C39.6,7.5,39.6,7.4,39.6,7.4z M44.6,10.5
		c-0.2-0.2-0.2-0.6,0-0.8c0,0,0-0.1,0-0.1c0,0-0.1,0-0.1,0c-0.2,0.2-0.6,0.2-0.8,0c0,0,0,0,0,0c0,0-0.1,0-0.1,0c0,0,0,0,0,0.1
		c0.2,0.2,0.2,0.6,0,0.8c0,0,0,0.1,0,0.1c0,0,0.1,0,0.1,0C44,10.3,44.3,10.3,44.6,10.5C44.6,10.6,44.6,10.6,44.6,10.5
		C44.6,10.6,44.6,10.6,44.6,10.5C44.6,10.6,44.6,10.6,44.6,10.5C44.7,10.5,44.7,10.5,44.6,10.5z"/>
</g>
</svg>
