<svg viewBox="0 0 84 84" xmlns="http://www.w3.org/2000/svg" style="fill: white"><path d="m41.89 48.68a2 2 0 0 0 -2-1.3h-.89a20.06 20.06 0 0 1 -20-20v-.5a1 1 0 0 0 -1.8-.6 12.48 12.48 0 0 0 -1.6 3.5 14.12 14.12 0 0 0 12.2 18l.7 1.9a1 1 0 0 0 .5.6l3 1.3a1 1 0 0 1 .5 1.3l-1 2.9a1 1 0 0 0 .5 1.22l1.6.7a1 1 0 0 1 .5 1.3l-.9 3.1a1.08 1.08 0 0 0 .5 1.2l2.3 1a1 1 0 0 1 .5 1.3l-.8 3.1a1 1 0 0 0 .6 1.2l6.8 3.1a1 1 0 0 0 1.3-.5l3-6.7a2.57 2.57 0 0 0 .1-1.5zm26.5-1-15.9-16.6a13.3 13.3 0 0 0 -.3-8.1 14.26 14.26 0 0 0 -12.5-9.5 14 14 0 0 0 -3.6 27.7 14.16 14.16 0 0 0 7.4-.5l1.4 1.5a.91.91 0 0 0 .7.3h3.41a.94.94 0 0 1 1 1l.3 3.1a1 1 0 0 0 1 .9h1.7a.94.94 0 0 1 1 1l.5 3.2a1 1 0 0 0 1 .8h2.5a.94.94 0 0 1 1 1l.5 3.2a1 1 0 0 0 1 .8h7.5a.94.94 0 0 0 1-1v-7.3a1.75 1.75 0 0 0 -.61-1.5zm-31.39-17.3a5 5 0 1 1 5-5 5 5 0 0 1 -5 5z"/></svg>
