<svg viewBox="0 0 84 84" xmlns="http://www.w3.org/2000/svg" style="fill: white"><path d="m55.58 20.59a1.6 1.6 0 0 0 -1.9-1.1l-40.3 13a2 2 0 0 0 -1.3 2.4l1.6 6.2a2.07 2.07 0 0 0 2.3 1.5l10.2-1.4a8.92 8.92 0 0 0 1.5 3.1l-8.68 23.6a3 3 0 0 0 1.8 3.9 3.55 3.55 0 0 0 1 .2 3 3 0 0 0 2.8-2l8.2-22.4a6.8 6.8 0 0 0 2 .2 12.31 12.31 0 0 0 2-.2l8.28 22.41a3 3 0 0 0 2.8 2 3.55 3.55 0 0 0 1-.2 3 3 0 0 0 1.8-3.9l-8.68-23.71a9.21 9.21 0 0 0 1.8-5.4v-.1l14.1-2a1.44 1.44 0 0 0 1.2-1.9zm16.3 14.1-5.5-20.4a3 3 0 1 0 -5.9 1.5l5.52 20.4a3 3 0 0 0 5.9-1.5z"/></svg>
