<svg viewBox="0 0 84 84" xmlns="http://www.w3.org/2000/svg" style="fill: #16325c"><path d="m59.5 53.75a1 1 0 0 0 -2 0v9.79h-26v1a3 3 0 1 1 -6 0v-38.83-1a5.1 5.1 0 0 0 -1.05-3.09h27.77a5.29 5.29 0 0 1 5.28 5.28v6.22a1 1 0 1 0 2 0v-6.22a7.29 7.29 0 0 0 -7.28-7.28h-31.71a5 5 0 0 0 -5 5.09v1h8v39s0 .08 0 .12a5 5 0 0 0 5 4.83h.52.23 29.23a5 5 0 0 0 5-5.08v-1h-4zm-41.83-30a3 3 0 0 1 2.84-2.09 3 3 0 0 1 2.8 2.09zm40.82 43.87h-26a5 5 0 0 0 .93-2.08h27.91a3 3 0 0 1 -2.84 2.08zm-6.87-32.62h-18.87a1 1 0 0 1 0-2h18.87a1 1 0 1 1 0 2zm-2.12 8h-16.75a1 1 0 0 1 0-2h16.75a1 1 0 0 1 0 2zm-2.25 6a1 1 0 0 1 0 2h-14.5a1 1 0 0 1 0-2zm19.8-20a36.55 36.55 0 0 0 -13.94 22.19l-4.11 4.72a1 1 0 0 0 0 1.41 1 1 0 0 0 .66.25 1 1 0 0 0 .75-.34l4.59-5.18c13.9-14.61 13.91-14.62 14-14.9l.29-9.82zm0 7.45-1.22 1.29-.09-1.55a1 1 0 0 0 -2 .12l.2 3.4a0 0 0 0 1 0 0l-8 8.47a34.52 34.52 0 0 1 11.25-16.73z"/></svg>
