<svg viewBox="0 0 84 84" xmlns="http://www.w3.org/2000/svg" style="fill: white"><path d="m30.16 25.08-2.81-2.32a1.89 1.89 0 0 0 -2.56.24l-14.17 17.83a2 2 0 0 0 0 2.32l14.29 17.7a1.77 1.77 0 0 0 2.56.24l2.81-2.32a1.68 1.68 0 0 0 .24-2.56l-11.47-14.29 11.6-14.28a2 2 0 0 0 -.49-2.56zm43.22 15.75-14.29-17.71a1.77 1.77 0 0 0 -2.56-.24l-2.81 2.32a1.68 1.68 0 0 0 -.24 2.56l11.59 14.29-11.59 14.28a1.89 1.89 0 0 0 .24 2.56l2.81 2.32a1.89 1.89 0 0 0 2.56-.21l14.29-17.85a2 2 0 0 0 0-2.32zm-24.54-17.46-3.67-.86a2 2 0 0 0 -2.32 1.35l-9 34.67a1.83 1.83 0 0 0 1.34 2.2l3.67.85a2 2 0 0 0 2.32-1.34l9-34.68a1.76 1.76 0 0 0 -1.34-2.19z"/></svg>
