<svg viewBox="0 0 84 84" xmlns="http://www.w3.org/2000/svg" style="fill: #16325c"><path d="m42 14.75a20.43 20.43 0 0 0 -11.6 37.25 9.81 9.81 0 0 1 4.21 8v2.62a3.15 3.15 0 0 0 3.15 3.14h10.64a1 1 0 0 0 0-2h-3.57v-19.25h1.87a3.84 3.84 0 1 0 -3.81-4.14.94.94 0 0 0 -.06.3v1.84h-1.66v-1.84a.94.94 0 0 0 -.06-.3 3.83 3.83 0 1 0 -3.81 4.14h1.87v19.29h-1.41a1.15 1.15 0 0 1 -1.15-1.14v-2.66a11.82 11.82 0 0 0 -5.09-9.71 18.42 18.42 0 1 1 21 0 11.82 11.82 0 0 0 -5.11 9.71 1 1 0 0 0 2 0 9.81 9.81 0 0 1 4.25-8 20.43 20.43 0 0 0 -11.66-37.25zm2.83 26.07a.8.8 0 0 0 0-.15 1.84 1.84 0 1 1 1.84 1.84h-1.84zm-7.53 1.69a1.84 1.84 0 1 1 1.84-1.84.8.8 0 0 0 0 .15v1.69zm3.87 2h1.66v19.29h-1.66zm7.2 24.92a1 1 0 0 1 -1 1h-10.74a1 1 0 1 1 0-2h10.74a1 1 0 0 1 1 1zm-1.6 5.07a1 1 0 0 1 -1 1h-7.55a1 1 0 0 1 0-2h7.55a1 1 0 0 1 1 1zm17.49-30.5a.1.1 0 0 1 0-.12.1.1 0 0 1 .12 0 .83.83 0 0 0 1.14-.3.08.08 0 0 1 .11 0 .08.08 0 0 1 0 .11.84.84 0 0 0 .28 1.15.07.07 0 0 1 0 .11.07.07 0 0 1 -.11 0 .85.85 0 0 0 -1.14.3.09.09 0 0 1 -.11 0 .08.08 0 0 1 0-.11.82.82 0 0 0 -.29-1.14zm-2.86 8.15a.07.07 0 0 1 0 .11.07.07 0 0 1 -.11 0 .84.84 0 0 0 -1.14.31s-.08 0-.11 0a.08.08 0 0 1 0-.11.82.82 0 0 0 -.28-1.14.1.1 0 0 1 0-.12.1.1 0 0 1 .12 0 .83.83 0 0 0 1.14-.3.08.08 0 1 1 .14.08.84.84 0 0 0 .24 1.17zm7.93 0a.25.25 0 0 1 -.34.09 2.53 2.53 0 0 0 -3.44.92.26.26 0 0 1 -.34.08.25.25 0 0 1 -.09-.34 2.5 2.5 0 0 0 -.83-3.45.25.25 0 0 1 -.08-.35.25.25 0 0 1 .34-.09 2.52 2.52 0 0 0 3.45-.9.26.26 0 0 1 .34-.08.24.24 0 0 1 .09.33 2.51 2.51 0 0 0 .83 3.46.24.24 0 0 1 .07.34zm-48.8-32.5a.09.09 0 0 1 0 .12.09.09 0 0 1 -.12 0 .84.84 0 0 0 -1.18 0 .08.08 0 0 1 -.11 0 .09.09 0 0 1 0-.12.8.8 0 0 0 0-1.17.09.09 0 0 1 0-.12.09.09 0 0 1 .12 0 .83.83 0 0 0 1.18 0 .09.09 0 0 1 .12 0 .08.08 0 0 1 0 .11.83.83 0 0 0 -.01 1.18zm4.7-7.3a.08.08 0 0 1 0-.12.08.08 0 0 1 .11 0 .84.84 0 0 0 1.18 0 .09.09 0 0 1 .12 0 .08.08 0 0 1 0 .11.83.83 0 0 0 0 1.18.08.08 0 0 1 0 .12.08.08 0 0 1 -.11 0 .84.84 0 0 0 -1.18 0 .09.09 0 0 1 -.12 0 .08.08 0 0 1 0-.11.83.83 0 0 0 0-1.18zm-3.8 2.31a2.52 2.52 0 0 0 -3.56.08.26.26 0 0 1 -.35 0 .25.25 0 0 1 0-.34 2.51 2.51 0 0 0 0-3.56.24.24 0 0 1 0-.35.24.24 0 0 1 .35 0 2.54 2.54 0 0 0 3.57-.09.25.25 0 0 1 .35.35 2.49 2.49 0 0 0 0 3.55.26.26 0 0 1 0 .36.26.26 0 0 1 -.36 0z"/></svg>
