<svg viewBox="0 0 84 84" xmlns="http://www.w3.org/2000/svg" style="fill: #16325c"><path d="m61.83 21.33v46.67a3.1 3.1 0 0 1 -3.1 3.1h-33.46a3.1 3.1 0 0 1 -3.1-3.1v-46.67a3.1 3.1 0 0 1 3.1-3.1h7.73a1 1 0 0 1 0 2h-7.73a1.1 1.1 0 0 0 -1.1 1.1v46.67a1.1 1.1 0 0 0 1.1 1.1h33.46a1.1 1.1 0 0 0 1.1-1.1v-46.67a1.1 1.1 0 0 0 -1.1-1.1h-7a1 1 0 0 1 0-2h7a3.1 3.1 0 0 1 3.1 3.1zm-26.91.82h1.31v-3.53a6 6 0 0 1 12 0v2.21 1.36h.87a5.4 5.4 0 0 1 5.39 5.39v1h-24.96v-1a5.4 5.4 0 0 1 5.39-5.43zm-3.24 4.39h20.64a3.4 3.4 0 0 0 -3.24-2.39h-2.87v-3.81c0-.39 0-1 0-1.74a4 4 0 0 0 -8 0v5.53h-3.29a3.4 3.4 0 0 0 -3.24 2.41zm21.62 10.52h-15.59a1 1 0 0 0 0 2h15.59a1 1 0 0 0 0-2zm0 10.37h-15.59a1 1 0 0 0 0 2h15.59a1 1 0 0 0 0-2zm-23.59 11.36a1.87 1.87 0 1 0 1.87-1.86 1.87 1.87 0 0 0 -1.87 1.86zm23.59-1h-15.59a1 1 0 0 0 0 2h15.59a1 1 0 0 0 0-2zm-18.65-22.71a1 1 0 0 0 -1.42 0l-2.44 2.45-.35-.35a1 1 0 0 0 -1.41 0 1 1 0 0 0 0 1.42l1.76 1.75 3.86-3.86a1 1 0 0 0 0-1.41zm0 10.25a1 1 0 0 0 -1.42 0l-2.44 2.45-.35-.35a1 1 0 0 0 -1.44 1.41l1.76 1.76 3.86-3.86a1 1 0 0 0 .03-1.41zm7.35-28.16a1 1 0 1 0 1 1 1 1 0 0 0 -1-1z"/></svg>
