<svg viewBox="0 0 84 84" xmlns="http://www.w3.org/2000/svg" style="fill: white"><path d="m66.83 18.94h-8.83v-1.77a1.78 1.78 0 0 0 -1.77-1.78h-28.42a1.78 1.78 0 0 0 -1.81 1.78v1.77h-8.83a1.78 1.78 0 0 0 -1.78 1.77v11.53a8 8 0 0 0 8 8h4.07a16 16 0 0 0 14.45 9.76 15.76 15.76 0 0 0 14.81-9.75h3.9a8 8 0 0 0 8-8v-11.54a1.78 1.78 0 0 0 -1.79-1.77zm-43.45 16a2.62 2.62 0 0 1 -2.67-2.66v-8h5.29v9.4a6.41 6.41 0 0 0 .08 1.24zm39.91-2.66a2.62 2.62 0 0 1 -2.67 2.66h-2.74c0-.35.08-.79.08-1.15v-9.53h5.33zm-12.42 31.01h-.87a5.35 5.35 0 0 1 -5.34-5.29v-1.81a.84.84 0 0 0 -.89-.89h-3.54a.84.84 0 0 0 -.89.89v1.81a5.35 5.35 0 0 1 -5.34 5.29h-.89a1.77 1.77 0 0 0 -1.77 1.77v1.77a1.78 1.78 0 0 0 1.77 1.78h17.76a1.78 1.78 0 0 0 1.77-1.78v-1.77a1.77 1.77 0 0 0 -1.77-1.77z"/></svg>
