<svg viewBox="0 0 60 60" xmlns="http://www.w3.org/2000/svg"><circle cx="30" cy="30" fill="#00a1e0" r="30"/><path d="m56.67 30a27 27 0 0 1 -26.95 27v-53.95a27 27 0 0 1 26.95 26.95z" fill="#ebbc48"/><path d="m3.05 30a27 27 0 0 0 26.95 27v-53.95a27 27 0 0 0 -26.95 26.95z" fill="#f9e17d"/><circle cx="15.28" cy="15.28" fill="#215ca0" r="1"/><circle cx="44.72" cy="44.72" fill="#215ca0" r="1"/><circle cx="44.72" cy="15.28" fill="#215ca0" r="1"/><circle cx="15.28" cy="44.72" fill="#215ca0" r="1"/><path d="m14.48 30 15.52-3.88 15.52 3.88-15.52 3.88z" fill="#cf451d"/><path d="m30 45.52-3.88-15.52 3.88-15.52 3.88 15.52z" fill="#215ca0"/><g fill="#00a1e0"><path d="m28.42 1.57h3.17v3.17h-3.17z" transform="matrix(.70710678 .70710678 -.70710678 .70710678 11.02 -20.29)"/><path d="m28.42 55.27h3.17v3.17h-3.17z" transform="matrix(.70710678 .70710678 -.70710678 .70710678 48.99 -4.56)"/><path d="m1.57 28.42h3.17v3.17h-3.17z" transform="matrix(.70710678 -.70710678 .70710678 .70710678 -20.29 11.02)"/><path d="m55.26 28.42h3.17v3.17h-3.17z" transform="matrix(.70710678 -.70710678 .70710678 .70710678 -4.57 48.99)"/></g><path d="m39 40a1 1 0 0 1 -.71-.29l-2.39-2.4a1 1 0 0 1 1.41-1.41l2.4 2.39a1 1 0 0 1 0 1.42 1 1 0 0 1 -.71.29z" fill="#215ca0"/><path d="m23.67 24.67a1 1 0 0 1 -.71-.3l-2.67-2.66a1 1 0 0 1 1.42-1.42l2.66 2.71a1 1 0 0 1 0 1.41 1 1 0 0 1 -.7.26z" fill="#215ca0"/><path d="m36.6 24.4a1 1 0 0 1 -.7-.3 1 1 0 0 1 0-1.41l2.39-2.4a1 1 0 0 1 1.42 1.42l-2.4 2.39a1 1 0 0 1 -.71.3z" fill="#215ca0"/><path d="m21 40a1 1 0 0 1 -.71-.29 1 1 0 0 1 0-1.42l2.71-2.66a1 1 0 0 1 1.37 1.37l-2.66 2.67a1 1 0 0 1 -.71.33z" fill="#215ca0"/></svg>