<svg xmlns="http://www.w3.org/2000/svg" xmlns:xlink="http://www.w3.org/1999/xlink"><symbol viewBox="1 1 61 61" id="tds__trailhead__linkedin" xmlns="http://www.w3.org/2000/svg"><path d="M32 2c16.6 0 30 13.4 30 30S48.6 62 32 62 2 48.6 2 32 15.4 2 32 2z" data-fill="preserve" fill="#0E76A8"/><path d="M18.9 44.2h5.6V25.5h-5.6v18.7zm21.9-19.4c-2.7 0-5.2 1-6.9 3.2v-2.6h-5.6v18.8h5.6V34c0-2.1 2-4.2 4.4-4.2s3.1 2.1 3.1 4.2v10.2H47V33.6c0-7.4-3.5-8.8-6.2-8.8zm-19.1-1.2c1.6 0 2.8-1.3 2.8-2.8 0-1.6-1.3-2.8-2.8-2.8s-2.8 1.3-2.8 2.8c0 1.5 1.2 2.8 2.8 2.8z" data-fill="preserve" fill="#fff"/></symbol><symbol viewBox="0 0 32 32" id="tds__trailhead__plus-circle-fill" xmlns="http://www.w3.org/2000/svg"><path d="M16 0c8.837 0 16 7.163 16 16s-7.163 16-16 16S0 24.837 0 16 7.163 0 16 0zm0 8a2 2 0 0 0-2 2v4h-4a2 2 0 1 0 0 4h4v4a2 2 0 1 0 4 0v-4h4a2 2 0 1 0 0-4h-4v-4a2 2 0 0 0-2-2z"/></symbol><symbol viewBox="0 0 32 32" id="tds__trailhead__plus-circle-outline" xmlns="http://www.w3.org/2000/svg"><path d="M16 0c8.837 0 16 7.163 16 16s-7.163 16-16 16S0 24.837 0 16 7.163 0 16 0zm0 4C9.373 4 4 9.373 4 16s5.373 12 12 12 12-5.373 12-12S22.627 4 16 4zm0 4a2 2 0 0 1 2 2v4h4a2 2 0 1 1 0 4h-4v4a2 2 0 1 1-4 0v-4h-4a2 2 0 1 1 0-4h4v-4a2 2 0 0 1 2-2z"/></symbol><symbol viewBox="0 0 32 32" id="tds__trailhead__star-fill" xmlns="http://www.w3.org/2000/svg"><path d="M13.321 1.857c.893-2.56 4.502-2.412 5.368.065l.055.172 2.398 7.821 7.925.001c2.828 0 3.94 3.63 1.712 5.3l-6.418 4.733 3.079 8.174.051.156c.746 2.61-2.187 4.849-4.462 3.142l-6.969-5.215-7.02 5.214c-2.246 1.684-5.266-.499-4.471-3.123l.05-.152 2.977-8.188-6.438-4.75c-2.174-1.63-1.084-5.14 1.554-5.286l.17-.005h7.929z"/></symbol><symbol viewBox="0 0 32 32" id="tds__trailhead__star-outline" xmlns="http://www.w3.org/2000/svg"><path d="m21.142 9.914-2.398-7.821-.055-.173c-.866-2.477-4.475-2.623-5.368-.064l-2.51 8.058H2.883l-.17.005c-2.639.146-3.729 3.657-1.555 5.287l6.438 4.75-2.977 8.188-.05.151c-.795 2.625 2.225 4.808 4.47 3.123l7.021-5.213 6.969 5.215c2.275 1.706 5.208-.532 4.462-3.142l-.051-.156-3.079-8.174 6.418-4.733c2.227-1.67 1.116-5.3-1.712-5.3zm-5.156-3.17 1.605 5.232.072.195c.467 1.137 1.537 1.744 2.657 1.744l5.486-.001-4.516 3.331-.162.139c-.886.808-1.2 2.014-.84 3.095L22.33 25.9l-4.545-3.4c-.95-.76-2.31-.76-3.357-.062l-.083.058-4.682 3.476 1.98-5.443.057-.19c.302-1.14-.082-2.33-.978-3.047l-4.579-3.379h5.487c1.267 0 2.355-.63 2.74-1.975z"/></symbol><symbol viewBox="0 0 32 32" id="tds__trailhead__star-outline-fill-yellow" xmlns="http://www.w3.org/2000/svg"><g fill="none" fill-rule="evenodd"><path d="m16.82 2.642 2.683 8.748c.117.35.467.525.817.525h8.747c.875 0 1.225 1.166.525 1.691l-7.115 5.249a.918.918 0 0 0-.291.991l3.382 8.981c.233.816-.641 1.516-1.341.991l-7.64-5.715c-.291-.233-.7-.233-1.05 0L7.84 29.818c-.7.525-1.633-.175-1.342-.991l3.266-8.981a.918.918 0 0 0-.292-.991l-7.114-5.249c-.7-.525-.292-1.691.525-1.691h8.747c.408 0 .7-.117.817-.525l2.74-8.806c.234-.816 1.4-.758 1.634.058z" data-fill="preserve" fill="#ffc800"/><path d="m21.142 9.915-2.398-7.82-.055-.173c-.866-2.477-4.475-2.624-5.368-.065l-2.51 8.058-7.928.001-.17.005c-2.639.145-3.729 3.656-1.555 5.286l6.438 4.75-2.977 8.188-.05.152c-.795 2.624 2.225 4.807 4.47 3.123l7.021-5.214 6.969 5.215c2.275 1.707 5.208-.531 4.462-3.142l-.051-.156-3.079-8.174 6.418-4.732c2.227-1.67 1.116-5.3-1.712-5.3zm-5.156-3.17 1.605 5.233.072.194c.467 1.137 1.537 1.744 2.657 1.744h5.486l-4.516 3.33-.162.139c-.886.809-1.2 2.014-.84 3.095l2.042 5.422-4.545-3.399c-.95-.76-2.31-.76-3.357-.063l-.083.059-4.682 3.475 1.98-5.443.057-.19c.302-1.14-.082-2.33-.978-3.047l-4.579-3.379 5.487.001c1.267 0 2.355-.63 2.74-1.975z" data-fill="preserve" fill="#c79800" fill-rule="nonzero"/></g></symbol><symbol viewBox="0 0 60 60" id="tds__trailhead__tb-blog" xmlns="http://www.w3.org/2000/svg"><circle data-fill="preserve" fill="#1e1e1e" cx="30" cy="30" r="30"/><path data-fill="preserve" fill="#fff" d="M32.6 33.9c0 1.6.2 7.1-.1 9.1-.4.2-.4.3-1 .5-.8.2-1.1.1-2 .1-.6-.6-1.5-1.4-1.9-2.6-.8-2.5 0-6.1 0-8.1 0-1.1.2-4.5.2-6.3.1-1.1.2-1.9 0-4.6-1.5.3-3.7.6-4.5.7-1.8-.4-3.5 0-5.4-1.6.3-.8.5-1 1.3-1.5 2.5-1.5 7.9-2.1 11.2-2.5 2.1-.2 5.7-.3 6.4-.4 1.7 0 2.7.2 3.9.5.9 1.2 1.5 1.8 1.8 3.9-.9.5-1.1.7-2.6.7-1.1-.9-4.3-.6-7-.4.1 1.5 0 3-.1 4.3-.1 1.8-.2 6.7-.2 8.2z"/></symbol></svg>