<svg viewBox="0 0 81.23 53.73" xmlns="http://www.w3.org/2000/svg"><path d="m40.62 21.26v20.01l-25.22-8.07.29-18.3z" fill="#8cd3f8"/><path d="m40.7 21.26v20.01l25.22-8.07-.29-18.3z" fill="#00a1e0"/><path d="m40.62 21.26-40.62-9.77 40.62-11.49 40.61 11.49z" fill="#215ca0"/><path d="m74.23 27.64a2.89 2.89 0 0 1 3.28-2.41.28.28 0 0 0 .32-.25.27.27 0 0 0 -.24-.32 2.88 2.88 0 0 1 -2.42-3.27.29.29 0 0 0 -.25-.32.29.29 0 0 0 -.32.23 2.9 2.9 0 0 1 -3.28 2.42.28.28 0 0 0 -.32.28.28.28 0 0 0 .23.33 2.87 2.87 0 0 1 2.43 3.27.29.29 0 0 0 .25.31.28.28 0 0 0 .32-.27z" fill="#ebbc48"/><path d="m68.87 20.74a1 1 0 0 1 1.09-.8.09.09 0 0 0 .1-.09.08.08 0 0 0 -.08-.1 1 1 0 0 1 -.8-1.09.09.09 0 0 0 -.08-.1.09.09 0 0 0 -.11.07 1 1 0 0 1 -1.09.8.09.09 0 0 0 -.1.09.08.08 0 0 0 .08.1 1 1 0 0 1 .8 1.09.1.1 0 0 0 .08.1.09.09 0 0 0 .11-.07z" fill="#ebbc48"/><path d="m69.78 30.82a1 1 0 0 1 1.08-.8.1.1 0 0 0 .11-.08.1.1 0 0 0 -.08-.11 1 1 0 0 1 -.8-1.08.1.1 0 0 0 -.08-.11.09.09 0 0 0 -.11.08 1 1 0 0 1 -1.09.8.1.1 0 0 0 -.11.08.11.11 0 0 0 .08.11 1 1 0 0 1 .81 1.08.1.1 0 0 0 .08.11.11.11 0 0 0 .11-.08z" fill="#ebbc48"/><g fill="#cf451d"><path d="m60.25 41.56a1 1 0 0 1 -1-1v-23.36l-13.8-3.9a1 1 0 1 1 .55-1.92l15.25 4.31v24.87a1 1 0 0 1 -1 1z"/><path d="m60.33 51.18a1 1 0 0 1 -1-1v-5.52a1 1 0 0 1 2 0v5.52a1 1 0 0 1 -1 1z"/><path d="m64.07 53.73a1 1 0 0 1 -1-1v-4.85a1 1 0 1 1 2 0v4.85a1 1 0 0 1 -1 1z"/><path d="m56.42 53.73a1 1 0 0 1 -1-1v-4.85a1 1 0 0 1 2 0v4.85a1 1 0 0 1 -1 1z"/><circle cx="40.45" cy="10.56" r="1.72"/></g></svg>