<svg xmlns="http://www.w3.org/2000/svg" xmlns:xlink="http://www.w3.org/1999/xlink" viewBox="0 0 195 195" width="195" height="195" preserveAspectRatio="xMidYMid meet" style="width: 100%; height: 100%; transform: translate3d(0px, 0px, 0px); content-visibility: visible;"><defs><clipPath id="__lottie_element_69"><rect width="195" height="195" x="0" y="0"/></clipPath></defs><g clip-path="url(#__lottie_element_69)"><g transform="matrix(0.5899999737739563,0,0,0.5899999737739563,29.800003051757812,0.00000762939453125)" opacity="1" style="display: block;"><g opacity="1" transform="matrix(1,0,0,1,149.26800537109375,264.7330017089844)"><path fill="rgb(123,137,55)" fill-opacity="1" d=" M-128.1719970703125,6.052999973297119 C-128.1719970703125,6.052999973297119 -130.73199462890625,-33.805999755859375 5.318999767303467,-31.64900016784668 C82.427001953125,-35.91999816894531 132.93600463867188,-13.508000373840332 130.6020050048828,0.6840000152587891 C128.26800537109375,14.875 73.38999938964844,33.805999755859375 1.3289999961853027,31.295000076293945 C-70.73200225830078,28.784000396728516 -126.61199951171875,27.035999298095703 -128.1719970703125,6.052999973297119z"/></g><g opacity="1" transform="matrix(1,0,0,1,218.41299438476562,146.64700317382812)"><path fill="rgb(251,190,126)" fill-opacity="1" d=" M-2.6579999923706055,-18.194000244140625 C2.378999948501587,-13.960000038146973 7.64300012588501,4.51200008392334 7.364999771118164,8.62399959564209 C7.364999771118164,8.62399959564209 1.684000015258789,5.697000026702881 1.684000015258789,5.697000026702881 C1.684000015258789,5.697000026702881 6.373000144958496,19.760000228881836 -4.744999885559082,22.027000427246094 C-4.744999885559082,22.027000427246094 -7.64300012588501,-22.027000427246094 -7.64300012588501,-22.027000427246094 C-7.64300012588501,-22.027000427246094 -2.6579999923706055,-18.194000244140625 -2.6579999923706055,-18.194000244140625z"/></g><g opacity="1" transform="matrix(1,0,0,1,227.74600219726562,37.869998931884766)"><path fill="rgb(210,141,85)" fill-opacity="1" d=" M-15.505000114440918,-20.649999618530273 C-16.863000869750977,-21.357999801635742 0.45100000500679016,-13.092000007629395 10.390999794006348,-9.628000259399414 C14.901000022888184,-8.057000160217285 16.86400032043457,0.39800000190734863 16.283000946044922,4.2779998779296875 C15.70300006866455,8.159000396728516 14.843999862670898,16.152000427246094 9.47700023651123,18.7549991607666 C4.110000133514404,21.357999801635742 -11.24899959564209,18.198999404907227 -11.24899959564209,18.198999404907227 C-11.24899959564209,18.198999404907227 -15.505000114440918,-20.649999618530273 -15.505000114440918,-20.649999618530273z"/></g><g opacity="1" transform="matrix(1,0,0,1,155.5290069580078,25.20800018310547)"><path fill="rgb(210,141,85)" fill-opacity="1" d=" M15.072999954223633,-18.85700035095215 C7.927000045776367,-23.631000518798828 -5.698999881744385,-21.851999282836914 -8.243000030517578,-16.35700035095215 C-10.786999702453613,-10.861000061035156 -12.097999572753906,6.158999919891357 -13.585000038146973,9.342000007629395 C-15.071999549865723,12.524999618530273 -13.536999702453613,18.031999588012695 -10.552000045776367,13.836999893188477 C-10.552000045776367,13.836999893188477 -10.633999824523926,23.631000518798828 -2.5480000972747803,23.118999481201172 C-2.5480000972747803,23.118999481201172 15.072999954223633,-18.85700035095215 15.072999954223633,-18.85700035095215z"/></g><g opacity="1" transform="matrix(1,0,0,1,155.99600219726562,136.55999755859375)"><path fill="rgb(223,156,95)" fill-opacity="1" d=" M-76.5459976196289,85.25900268554688 C-75.52300262451172,73.49299621582031 -72.47699737548828,38.5369987487793 -45.49300003051758,7.125999927520752 C-18.509000778198242,-24.28499984741211 -5.482999801635742,-46.902000427246094 -3.6470000743865967,-63.99100112915039 C-1.8109999895095825,-81.08000183105469 -13.562999725341797,-113.24500274658203 8.505000114440918,-128.9080047607422 C30.572999954223633,-144.5709991455078 44.2599983215332,-130.96099853515625 44.2599983215332,-130.96099853515625 C57.25,-133.81900024414062 67.73100280761719,-131.41000366210938 69.0479965209961,-125.77200317382812 C70.36499786376953,-120.13400268554688 63.88399887084961,-116.38300323486328 65.16300201416016,-111.02999877929688 C66.44300079345703,-105.6780014038086 79.07499694824219,-95.70600128173828 77.73400115966797,-92.6259994506836 C76.39299774169922,-89.5459976196289 68.44400024414062,-92.57499694824219 68.44400024414062,-92.57499694824219 C68.44400024414062,-92.57499694824219 80.09500122070312,-72.30799865722656 74.96600341796875,-69.31500244140625 C69.83699798583984,-66.32099914550781 63.27899932861328,-76.50399780273438 59.106998443603516,-75.08799743652344 C54.933998107910156,-73.6719970703125 58.57400131225586,-68.0459976196289 55.46900177001953,-67.3499984741211 C52.36399841308594,-66.65499877929688 51.470001220703125,-66.8280029296875 51.470001220703125,-66.8280029296875 C51.470001220703125,-66.8280029296875 58.220001220703125,-1.7640000581741333 59.016998291015625,13.23799991607666 C59.8129997253418,28.239999771118164 64.2509994506836,75.59500122070312 65.20800018310547,80.6989974975586 C66.16500091552734,85.8030014038086 35.62699890136719,94.43800354003906 35.62699890136719,94.43800354003906 C35.62699890136719,94.43800354003906 27.635000228881836,95.5479965209961 27.635000228881836,95.5479965209961 C27.635000228881836,95.5479965209961 27.992000579833984,98.26599884033203 28.57699966430664,102.76200103759766 C28.941999435424805,105.57499694824219 28.599000930786133,109.58999633789062 32.17599868774414,110.28500366210938 C35.75299835205078,110.9800033569336 40.944000244140625,112.91699981689453 50.097999572753906,114.0459976196289 C59.25,115.1760025024414 69.98200225830078,123.94200134277344 72.15599822998047,129.46800231933594 C74.33000183105469,134.9949951171875 69.01399993896484,136.55999755859375 69.01399993896484,136.55999755859375 C69.01399993896484,136.55999755859375 27.086000442504883,133.60899353027344 15.548999786376953,134.24400329589844 C4.01200008392334,134.87899780273438 -22.39299964904785,135.1300048828125 -20.716999053955078,127.93800354003906 C-19.041000366210938,120.74800109863281 -30.88800048828125,116.77400207519531 -36.82400131225586,122.48799896240234 C-36.82400131225586,122.48799896240234 -36.67599868774414,116.9489974975586 -36.67599868774414,116.9489974975586 C-36.67599868774414,116.9489974975586 -47.06999969482422,124.11599731445312 -47.06999969482422,124.11599731445312 C-47.06999969482422,124.11599731445312 -80.09600067138672,126.0790023803711 -76.5459976196289,85.25900268554688z"/></g><g opacity="1" transform="matrix(1,0,0,1,200.00100708007812,96.0979995727539)"><path fill="rgb(251,190,126)" fill-opacity="1" d=" M7.464000225067139,-26.365999221801758 C3.868000030517578,-26.423999786376953 2.0209999084472656,-34.334999084472656 2.0209999084472656,-34.334999084472656 C2.0209999084472656,-34.334999084472656 -4.940999984741211,-57.47700119018555 -4.940999984741211,-57.47700119018555 C-10.291999816894531,-58.117000579833984 -15.01099967956543,-41.14899826049805 -6.540999889373779,-29.141000747680664 C-1.5390000343322754,-22.048999786376953 2.7139999866485596,-5.076000213623047 1.565999984741211,4.85699987411499 C0.4169999957084656,14.789999961853027 -11.170000076293945,35.32500076293945 -10.529999732971191,42.30699920654297 C-9.890000343322754,49.290000915527344 -3.2230000495910645,39.994998931884766 -3.2230000495910645,39.994998931884766 C-3.2230000495910645,39.994998931884766 -3.1760001182556152,48.685001373291016 2.3320000171661377,53.4010009765625 C7.839000225067139,58.117000579833984 8.791000366210938,48.75299835205078 8.791000366210938,48.75299835205078 C8.791000366210938,48.75299835205078 15.01099967956543,53.70000076293945 15.01099967956543,53.70000076293945 C15.01099967956543,53.70000076293945 7.074999809265137,-21.440000534057617 7.464000225067139,-26.365999221801758z"/></g><g opacity="1" transform="matrix(1,0,0,1,185.7270050048828,102.06500244140625)"><path fill="rgb(189,30,44)" fill-opacity="1" d=" M-33.14899826049805,-36.02199935913086 C-23.367000579833984,-38.11399841308594 23.697999954223633,-18.985000610351562 23.697999954223633,-18.985000610351562 C23.697999954223633,-18.985000610351562 35.4109992980957,2.0420000553131104 40.119998931884766,38.11399841308594 C24.597999572753906,35.79199981689453 -11.197999954223633,11.38700008392334 -35.77299880981445,-20.732999801635742 C-35.77299880981445,-20.732999801635742 -40.11899948120117,-33.20899963378906 -33.14899826049805,-36.02199935913086z"/></g><g opacity="1" transform="matrix(1,0,0,1,144.92100524902344,63.90700149536133)"><path fill="rgb(189,30,44)" fill-opacity="1" d=" M10.36400032043457,8.305000305175781 C11.897000312805176,1.3109999895095825 2.9730000495910645,-10.84000015258789 -11.897000312805176,-10.256999969482422 C-11.211000442504883,-0.8360000252723694 -6.968999862670898,10.83899974822998 10.36400032043457,8.305000305175781z"/></g><g opacity="1" transform="matrix(1,0,0,1,140.41799926757812,77.89800262451172)"><path fill="rgb(189,30,44)" fill-opacity="1" d=" M13.133000373840332,-5.586999893188477 C7.953999996185303,-10.487000465393066 -6.553999900817871,-9.128000259399414 -13.133999824523926,3.8440001010894775 C-4.8480000495910645,8.10099983215332 7.031000137329102,10.486000061035156 13.133000373840332,-5.586999893188477z"/></g><g opacity="1" transform="matrix(1,0,0,1,164.03799438476562,192.72500610351562)"><path fill="rgb(251,190,126)" fill-opacity="1" d=" M19.593000411987305,39.382999420166016 C22.0310001373291,26.836000442504883 11.116000175476074,-34.922000885009766 -30.46299934387207,-28.68000030517578 C-7.059999942779541,-39.887001037597656 13.817999839782715,-26.71500015258789 24.0310001373291,-10.928000450134277 C24.0310001373291,-10.928000450134277 17.461999893188477,-11.293000221252441 17.461999893188477,-11.293000221252441 C17.461999893188477,-11.293000221252441 30.46299934387207,0.8690000176429749 30.46299934387207,0.8690000176429749 C30.46299934387207,0.8690000176429749 23.597000122070312,1.3580000400543213 23.597000122070312,1.3580000400543213 C23.597000122070312,1.3580000400543213 28.0939998626709,17.076000213623047 28.392000198364258,25.597999572753906 C28.68899917602539,34.11899948120117 28.2189998626709,39.887001037597656 28.2189998626709,39.887001037597656 C28.2189998626709,39.887001037597656 19.593000411987305,39.382999420166016 19.593000411987305,39.382999420166016z"/></g><g opacity="1" transform="matrix(1,0,0,1,243.4980010986328,33.92900085449219)"><path fill="rgb(117,75,40)" fill-opacity="1" d=" M0.5299999713897705,8.218999862670898 C-0.8190000057220459,-3.1549999713897705 -5.361999988555908,-5.685999870300293 -5.361999988555908,-5.685999870300293 C-0.5289999842643738,-8.218999862670898 5.361999988555908,-0.5649999976158142 0.5299999713897705,8.218999862670898z"/></g><g opacity="1" transform="matrix(1,0,0,1,214.49000549316406,227.46099853515625)"><path fill="rgb(251,190,126)" fill-opacity="1" d=" M6.377999782562256,-16.111000061035156 C6.377999782562256,-16.111000061035156 8.383000373840332,-6.997000217437744 9.307000160217285,-3.0409998893737793 C10.230999946594238,0.9139999747276306 8.437000274658203,2.7790000438690186 13.456000328063965,3.753999948501587 C18.474000930786133,4.730000019073486 22.586999893188477,5.007999897003174 24.434999465942383,12.920000076293945 C24.434999465942383,12.920000076293945 25.725000381469727,19.680999755859375 22.465999603271484,19.698999404907227 C19.20800018310547,19.716999053955078 1.6150000095367432,18.450000762939453 -4.561999797821045,18.743000030517578 C-21.128000259399414,19.52899932861328 -25.72599983215332,12.479000091552734 -24.290000915527344,5.013000011444092 C-24.290000915527344,5.013000011444092 -23.385000228881836,-3.6649999618530273 -23.350000381469727,-6.5229997634887695 C-23.31599998474121,-9.380999565124512 -20.649999618530273,-17.066999435424805 -14.951000213623047,-10.880999565124512 C-12.581999778747559,-17.711999893188477 -4.495999813079834,-15.098999977111816 -3.2230000495910645,-11.595999717712402 C-3.4679999351501465,-19.716999053955078 4.704999923706055,-19.56100082397461 6.377999782562256,-16.111000061035156z"/></g><g opacity="1" transform="matrix(1,0,0,1,231.41600036621094,238.4029998779297)"><path fill="rgb(224,164,96)" fill-opacity="1" d=" M-6.589000225067139,-9.22700023651123 C-6.589000225067139,-9.22700023651123 -4.741000175476074,-1.315000057220459 -10.456999778747559,-1.3849999904632568 C-10.456999778747559,-1.3849999904632568 -4.896999835968018,6.85699987411499 -12.460000038146973,8.251999855041504 C-12.460000038146973,8.251999855041504 1.934000015258789,9.22700023651123 7.197000026702881,8.946999549865723 C12.460000038146973,8.668000221252441 9.33899974822998,-2.746000051498413 5.366000175476074,-5.080999851226807 C1.3919999599456787,-7.414999961853027 -5.979000091552734,-7.676000118255615 -6.589000225067139,-9.22700023651123z"/></g><g opacity="1" transform="matrix(1,0,0,1,195.26699829101562,259.2659912109375)"><path fill="rgb(251,190,126)" fill-opacity="1" d=" M16.090999603271484,-8.357000350952148 C21.16200065612793,-6.980999946594238 25.312000274658203,9.1899995803833 18.91699981689453,13.28600025177002 C18.91699981689453,13.28600025177002 -20.398000717163086,11.895999908447266 -25.312000274658203,11.722999572753906 C-18.951000213623047,10.484000205993652 -16.33799934387207,2.3980000019073486 -21.30500030517578,1.8240000009536743 C-11.930000305175781,1.8229999542236328 -13.690999984741211,-8.545000076293945 -18.51799964904785,-11.175999641418457 C-18.51799964904785,-11.175999641418457 -8.60200023651123,-13.28600025177002 -8.60200023651123,-13.28600025177002 C-8.60200023651123,-13.28600025177002 1.24399995803833,-9.680000305175781 16.090999603271484,-8.357000350952148z"/></g></g><g transform="matrix(0.9135479927062988,0.4067377746105194,-0.4067377746105194,0.9135479927062988,115.08021545410156,115.02015686035156)" opacity="1" style="display: block;"><g opacity="1" transform="matrix(1,0,0,1,0,0)"><path fill="rgb(224,156,95)" fill-opacity="1" d=" M-20.635000228881836,33.71200180053711 C-23.691999435424805,36.78900146484375 -25.200000762939453,37.92599868774414 -34.68199920654297,39.33100128173828 C-75.41799926757812,46.354000091552734 -79.75399780273438,100.27100372314453 -50.606998443603516,95.70600128173828 C-29.639999389648438,91.33999633789062 -29.08099937438965,87.68099975585938 -9.675999641418457,85.92900085449219 C-10.123000144958496,85.66500091552734 -17.770999908447266,83.73600006103516 -16.506000518798828,75.28500366210938 C-5.9679999351501465,72.96499633789062 6.566999912261963,82.63300323486328 6.566999912261963,82.63300323486328 C6.566999912261963,82.63300323486328 5.125,75.14099884033203 -0.23100000619888306,66.15599822998047 C-3.490999937057495,60.6879997253418 -19.384000778198242,55.358001708984375 -27.930999755859375,59.821998596191406 C-37.729000091552734,64.94000244140625 -47.520999908447266,73.6780014038086 -36.92300033569336,57.87900161743164 C-34.01499938964844,53.54399871826172 -20.90999984741211,49.24100112915039 -17.475000381469727,43.895999908447266 C-12.105999946594238,35.540000915527344 -12.354999542236328,27.93400001525879 -20.635000228881836,33.71200180053711z"/></g><g opacity="1" transform="matrix(1,0,0,1,0,0)"><path fill="rgb(252,191,127)" fill-opacity="1" d=" M-50.606998443603516,95.70600128173828 C-29.639999389648438,91.33999633789062 -29.08099937438965,87.68099975585938 -9.675999641418457,85.92900085449219 C-10.123000144958496,85.66500091552734 -17.770999908447266,83.73600006103516 -16.506000518798828,75.28500366210938 C-5.9679999351501465,72.96499633789062 6.566999912261963,82.63300323486328 6.566999912261963,82.63300323486328 C6.566999912261963,82.63300323486328 5.125,75.14099884033203 -0.23100000619888306,66.15599822998047 C-3.490999937057495,60.6879997253418 -19.384000778198242,55.358001708984375 -27.930999755859375,59.821998596191406 C-37.729000091552734,64.94000244140625 -31.047000885009766,81.66799926757812 -50.606998443603516,95.70600128173828z"/></g></g></g></svg>