<svg viewBox="0 0 84 84" xmlns="http://www.w3.org/2000/svg" style="fill: #5E2E84"><path d="m24.27 40.65a.64.64 0 0 0 -1-.48l-5.5 4.52a1.29 1.29 0 0 0 -.25 1v19.42c0 1.22 1.72 1.83 2.82 1l8.92-7a.6.6 0 0 0 .13-.86c-2.19-3.25-4.39-8.79-5.12-17.6zm11.86 18.22a1.68 1.68 0 0 0 .73.25h10.14a1.67 1.67 0 0 0 .74-.25c1.46-1 7.33-5.87 7.33-22.49 0-7.71-2.2-13.09-4.77-16.76a19.22 19.22 0 0 0 -8.31-7 18.92 18.92 0 0 0 -8.44 7.1c-2.56 3.66-4.64 8.92-4.64 16.63.01 16.65 5.75 21.55 7.22 22.52zm5.75-32.77a7.34 7.34 0 1 1 -7.34 7.34 7.36 7.36 0 0 1 7.34-7.34zm24.21 18.59-5.38-4.52a.58.58 0 0 0 -1 .48c-.71 8.81-2.91 14.35-4.99 17.74a.72.72 0 0 0 .12.85l8.93 7a1.6 1.6 0 0 0 2.69-1v-19.57c0-.37 0-.74-.37-.98zm-16.51 19.93a1.23 1.23 0 0 0 -1-.61h-13.43a1.1 1.1 0 0 0 -1 .61 14.32 14.32 0 0 0 -1.71 3.79 2.46 2.46 0 0 0 2.45 2.94h13.96a2.45 2.45 0 0 0 2.44-2.94 11.13 11.13 0 0 0 -1.71-3.79z"/></svg>
