<svg viewBox="0 0 59.09 58.87" xmlns="http://www.w3.org/2000/svg"><path d="m19.49 37.21s-8.18-3.53-12.82 4.79c-3.4 6.07 2.46 10.42-6.67 16.87 0 0 8.75-.16 15.12-4.18 11.05-7 6.54-15.31 6.54-15.31z" fill="#ebbc48"/><path d="m9.63 46.26c-.63 4.74-1.42 7-2.72 8.19 4.51-2.63 5.09-3.83 7.09-7.62 0 2.06-.33 2.51-.33 2.51a4.83 4.83 0 0 0 4.2-4.62c.69-6.33 3.53-6.66 3.53-6.66s-10.5-1.2-11.77 8.2z" fill="#cf451d"/><path d="m5.78 44.12c-.51 1.59-1.4 4.34-4.51 5.67 1.28.14 4.12 0 5.48-2s-.97-3.67-.97-3.67z" fill="#ebbc48"/><g fill="#215ca0"><path d="m23.29 41.25-5.44-5.44 2.72-5.95 8.67 8.67z"/><path d="m11.4 20.28 14.6-4.15-2.88 17.67-12.12-12.09a.86.86 0 0 1 .4-1.43z"/><path d="m25.12 35.8 17.6-2.94-4.08 14.65a.86.86 0 0 1 -1.43.38z"/></g><path d="m58 1.05c3.09 2.87 1.38 36.25-29.08 42.14-5.54-5.64-10.17-10.14-13.26-13.27 2.96-22.54 39.34-31.7 42.34-28.87z" fill="#00a1e0"/><path d="m15.66 29.92c1.76 1.78 4 4 6.66 6.64l35.58-35.56c-3.58-2.62-34.28-2.2-42.24 28.92z" fill="#8cd3f8"/><ellipse cx="39.76" cy="19.1" fill="#ded6cf" rx="6.08" ry="5.6" transform="matrix(.70710678 -.70710678 .70710678 .70710678 -1.86 33.71)"/><path d="m35.8 15.14a5.86 5.86 0 0 0 -.34 8.26l8.6-8.6a5.85 5.85 0 0 0 -8.26.34z" fill="#f5f2f2"/><path d="m39.28 25.44a5.84 5.84 0 0 1 -4.17-1.69 6.36 6.36 0 0 1 .34-9 6.36 6.36 0 0 1 9-.33 6.36 6.36 0 0 1 -.33 9 6.82 6.82 0 0 1 -4.84 2.02zm1-11.69a5.82 5.82 0 0 0 -4.09 1.74 5.36 5.36 0 0 0 -.37 7.51 5.36 5.36 0 0 0 7.55-.33 5.37 5.37 0 0 0 .34-7.56 4.9 4.9 0 0 0 -3.47-1.36z" fill="#215ca0"/></svg>